M48
; DRILL file {KiCad 5.1.4} date Mon 04 Nov 2019 19:36:52 CET
; FORMAT={3:3/ absolute / metric / suppress leading zeros}
; #@! TF.CreationDate,2019-11-04T19:36:52+01:00
; #@! TF.GenerationSoftware,Kicad,Pcbnew,5.1.4
FMAT,2
METRIC,TZ
T1C0.800
T2C0.900
T3C1.000
T4C1.100
T5C1.300
T6C3.200
%
G90
G05
T1
X155000Y-86000
X165160Y-86000
X154840Y-68000
X165000Y-68000
X95000Y-88000
X95000Y-90540
X95000Y-93080
X95000Y-95620
X95000Y-98160
X95000Y-100700
X95000Y-103240
X95000Y-105780
X95000Y-108320
X95000Y-110860
X95000Y-113400
X95000Y-115940
X95000Y-118480
X95000Y-121020
X95000Y-123560
X110240Y-88000
X110240Y-90540
X110240Y-93080
X110240Y-95620
X110240Y-98160
X110240Y-100700
X110240Y-103240
X110240Y-105780
X110240Y-108320
X110240Y-110860
X110240Y-113400
X110240Y-115940
X110240Y-118480
X110240Y-121020
X110240Y-123560
X155000Y-78800
X165160Y-78800
X155000Y-75200
X165160Y-75200
X155000Y-82400
X165160Y-82400
X154840Y-71600
X165000Y-71600
T2
X172000Y-88460
X172000Y-91000
X149000Y-88460
X149000Y-91000
T3
X126380Y-65800
X128920Y-65800
X131460Y-65800
X134000Y-65800
T4
X121320Y-99600
X123860Y-99600
X126400Y-99600
X121320Y-109600
X123860Y-109600
X126400Y-109600
T5
X160000Y-99000
X160000Y-111200
X166000Y-97000
X172000Y-99000
X172000Y-111200
X149500Y-125000
X154580Y-125000
X159660Y-125000
X164740Y-125000
X169820Y-125000
X174900Y-125000
X116500Y-125000
X121580Y-125000
X126660Y-125000
X131740Y-125000
X136820Y-125000
X141900Y-125000
X137000Y-99000
X137000Y-111200
X143000Y-97000
X149000Y-99000
X149000Y-111200
T6
X173000Y-137000
X96000Y-137000
X96000Y-69000
X173000Y-69000
T0
M30
