G04 #@! TF.GenerationSoftware,KiCad,Pcbnew,5.1.4*
G04 #@! TF.CreationDate,2019-11-04T19:33:23+01:00*
G04 #@! TF.ProjectId,fan-controller,66616e2d-636f-46e7-9472-6f6c6c65722e,1.0*
G04 #@! TF.SameCoordinates,Original*
G04 #@! TF.FileFunction,Legend,Top*
G04 #@! TF.FilePolarity,Positive*
%FSLAX46Y46*%
G04 Gerber Fmt 4.6, Leading zero omitted, Abs format (unit mm)*
G04 Created by KiCad (PCBNEW 5.1.4) date 2019-11-04 19:33:23*
%MOMM*%
%LPD*%
G04 APERTURE LIST*
%ADD10C,0.150000*%
%ADD11C,0.120000*%
G04 APERTURE END LIST*
D10*
X175452380Y-133447619D02*
X174452380Y-133447619D01*
X174928571Y-133447619D02*
X174928571Y-132876190D01*
X175452380Y-132876190D02*
X174452380Y-132876190D01*
X175452380Y-132400000D02*
X174452380Y-132400000D01*
X174500000Y-131400000D02*
X174452380Y-131495238D01*
X174452380Y-131638095D01*
X174500000Y-131780952D01*
X174595238Y-131876190D01*
X174690476Y-131923809D01*
X174880952Y-131971428D01*
X175023809Y-131971428D01*
X175214285Y-131923809D01*
X175309523Y-131876190D01*
X175404761Y-131780952D01*
X175452380Y-131638095D01*
X175452380Y-131542857D01*
X175404761Y-131400000D01*
X175357142Y-131352380D01*
X175023809Y-131352380D01*
X175023809Y-131542857D01*
X175452380Y-130923809D02*
X174452380Y-130923809D01*
X174928571Y-130923809D02*
X174928571Y-130352380D01*
X175452380Y-130352380D02*
X174452380Y-130352380D01*
X170152380Y-132685714D02*
X170152380Y-133161904D01*
X169152380Y-133161904D01*
X169152380Y-132161904D02*
X169152380Y-131971428D01*
X169200000Y-131876190D01*
X169295238Y-131780952D01*
X169485714Y-131733333D01*
X169819047Y-131733333D01*
X170009523Y-131780952D01*
X170104761Y-131876190D01*
X170152380Y-131971428D01*
X170152380Y-132161904D01*
X170104761Y-132257142D01*
X170009523Y-132352380D01*
X169819047Y-132400000D01*
X169485714Y-132400000D01*
X169295238Y-132352380D01*
X169200000Y-132257142D01*
X169152380Y-132161904D01*
X169152380Y-131400000D02*
X170152380Y-131161904D01*
X169438095Y-130971428D01*
X170152380Y-130780952D01*
X169152380Y-130542857D01*
X165452380Y-141940476D02*
X164452380Y-141940476D01*
X164452380Y-141559523D01*
X164500000Y-141464285D01*
X164547619Y-141416666D01*
X164642857Y-141369047D01*
X164785714Y-141369047D01*
X164880952Y-141416666D01*
X164928571Y-141464285D01*
X164976190Y-141559523D01*
X164976190Y-141940476D01*
X164452380Y-140750000D02*
X164452380Y-140559523D01*
X164500000Y-140464285D01*
X164595238Y-140369047D01*
X164785714Y-140321428D01*
X165119047Y-140321428D01*
X165309523Y-140369047D01*
X165404761Y-140464285D01*
X165452380Y-140559523D01*
X165452380Y-140750000D01*
X165404761Y-140845238D01*
X165309523Y-140940476D01*
X165119047Y-140988095D01*
X164785714Y-140988095D01*
X164595238Y-140940476D01*
X164500000Y-140845238D01*
X164452380Y-140750000D01*
X164452380Y-139988095D02*
X165452380Y-139750000D01*
X164738095Y-139559523D01*
X165452380Y-139369047D01*
X164452380Y-139130952D01*
X164928571Y-138750000D02*
X164928571Y-138416666D01*
X165452380Y-138273809D02*
X165452380Y-138750000D01*
X164452380Y-138750000D01*
X164452380Y-138273809D01*
X165452380Y-137273809D02*
X164976190Y-137607142D01*
X165452380Y-137845238D02*
X164452380Y-137845238D01*
X164452380Y-137464285D01*
X164500000Y-137369047D01*
X164547619Y-137321428D01*
X164642857Y-137273809D01*
X164785714Y-137273809D01*
X164880952Y-137321428D01*
X164928571Y-137369047D01*
X164976190Y-137464285D01*
X164976190Y-137845238D01*
X164452380Y-136083333D02*
X165261904Y-136083333D01*
X165357142Y-136035714D01*
X165404761Y-135988095D01*
X165452380Y-135892857D01*
X165452380Y-135702380D01*
X165404761Y-135607142D01*
X165357142Y-135559523D01*
X165261904Y-135511904D01*
X164452380Y-135511904D01*
X164452380Y-135178571D02*
X164452380Y-134607142D01*
X165452380Y-134892857D02*
X164452380Y-134892857D01*
X165452380Y-133797619D02*
X165452380Y-134273809D01*
X164452380Y-134273809D01*
X164928571Y-133464285D02*
X164928571Y-133130952D01*
X165452380Y-132988095D02*
X165452380Y-133464285D01*
X164452380Y-133464285D01*
X164452380Y-132988095D01*
X164452380Y-132702380D02*
X164452380Y-132130952D01*
X165452380Y-132416666D02*
X164452380Y-132416666D01*
X164547619Y-131083333D02*
X164500000Y-131035714D01*
X164452380Y-130940476D01*
X164452380Y-130702380D01*
X164500000Y-130607142D01*
X164547619Y-130559523D01*
X164642857Y-130511904D01*
X164738095Y-130511904D01*
X164880952Y-130559523D01*
X165452380Y-131130952D01*
X165452380Y-130511904D01*
X149428571Y-135238095D02*
X149428571Y-135571428D01*
X149952380Y-135571428D02*
X148952380Y-135571428D01*
X148952380Y-135095238D01*
X149666666Y-134761904D02*
X149666666Y-134285714D01*
X149952380Y-134857142D02*
X148952380Y-134523809D01*
X149952380Y-134190476D01*
X149952380Y-133857142D02*
X148952380Y-133857142D01*
X149952380Y-133285714D01*
X148952380Y-133285714D01*
X149952380Y-132047619D02*
X148952380Y-132047619D01*
X149952380Y-131476190D01*
X148952380Y-131476190D01*
X148952380Y-130809523D02*
X148952380Y-130619047D01*
X149000000Y-130523809D01*
X149095238Y-130428571D01*
X149285714Y-130380952D01*
X149619047Y-130380952D01*
X149809523Y-130428571D01*
X149904761Y-130523809D01*
X149952380Y-130619047D01*
X149952380Y-130809523D01*
X149904761Y-130904761D01*
X149809523Y-131000000D01*
X149619047Y-131047619D01*
X149285714Y-131047619D01*
X149095238Y-131000000D01*
X149000000Y-130904761D01*
X148952380Y-130809523D01*
X154428571Y-135214285D02*
X154428571Y-135547619D01*
X154952380Y-135547619D02*
X153952380Y-135547619D01*
X153952380Y-135071428D01*
X154666666Y-134738095D02*
X154666666Y-134261904D01*
X154952380Y-134833333D02*
X153952380Y-134500000D01*
X154952380Y-134166666D01*
X154952380Y-133833333D02*
X153952380Y-133833333D01*
X154952380Y-133261904D01*
X153952380Y-133261904D01*
X154952380Y-132023809D02*
X153952380Y-132023809D01*
X154952380Y-131452380D01*
X153952380Y-131452380D01*
X154857142Y-130404761D02*
X154904761Y-130452380D01*
X154952380Y-130595238D01*
X154952380Y-130690476D01*
X154904761Y-130833333D01*
X154809523Y-130928571D01*
X154714285Y-130976190D01*
X154523809Y-131023809D01*
X154380952Y-131023809D01*
X154190476Y-130976190D01*
X154095238Y-130928571D01*
X154000000Y-130833333D01*
X153952380Y-130690476D01*
X153952380Y-130595238D01*
X154000000Y-130452380D01*
X154047619Y-130404761D01*
X160202380Y-141690476D02*
X159202380Y-141690476D01*
X159202380Y-141309523D01*
X159250000Y-141214285D01*
X159297619Y-141166666D01*
X159392857Y-141119047D01*
X159535714Y-141119047D01*
X159630952Y-141166666D01*
X159678571Y-141214285D01*
X159726190Y-141309523D01*
X159726190Y-141690476D01*
X159202380Y-140500000D02*
X159202380Y-140309523D01*
X159250000Y-140214285D01*
X159345238Y-140119047D01*
X159535714Y-140071428D01*
X159869047Y-140071428D01*
X160059523Y-140119047D01*
X160154761Y-140214285D01*
X160202380Y-140309523D01*
X160202380Y-140500000D01*
X160154761Y-140595238D01*
X160059523Y-140690476D01*
X159869047Y-140738095D01*
X159535714Y-140738095D01*
X159345238Y-140690476D01*
X159250000Y-140595238D01*
X159202380Y-140500000D01*
X159202380Y-139738095D02*
X160202380Y-139500000D01*
X159488095Y-139309523D01*
X160202380Y-139119047D01*
X159202380Y-138880952D01*
X159678571Y-138500000D02*
X159678571Y-138166666D01*
X160202380Y-138023809D02*
X160202380Y-138500000D01*
X159202380Y-138500000D01*
X159202380Y-138023809D01*
X160202380Y-137023809D02*
X159726190Y-137357142D01*
X160202380Y-137595238D02*
X159202380Y-137595238D01*
X159202380Y-137214285D01*
X159250000Y-137119047D01*
X159297619Y-137071428D01*
X159392857Y-137023809D01*
X159535714Y-137023809D01*
X159630952Y-137071428D01*
X159678571Y-137119047D01*
X159726190Y-137214285D01*
X159726190Y-137595238D01*
X159202380Y-135833333D02*
X160011904Y-135833333D01*
X160107142Y-135785714D01*
X160154761Y-135738095D01*
X160202380Y-135642857D01*
X160202380Y-135452380D01*
X160154761Y-135357142D01*
X160107142Y-135309523D01*
X160011904Y-135261904D01*
X159202380Y-135261904D01*
X159202380Y-134928571D02*
X159202380Y-134357142D01*
X160202380Y-134642857D02*
X159202380Y-134642857D01*
X160202380Y-133547619D02*
X160202380Y-134023809D01*
X159202380Y-134023809D01*
X159678571Y-133214285D02*
X159678571Y-132880952D01*
X160202380Y-132738095D02*
X160202380Y-133214285D01*
X159202380Y-133214285D01*
X159202380Y-132738095D01*
X159202380Y-132452380D02*
X159202380Y-131880952D01*
X160202380Y-132166666D02*
X159202380Y-132166666D01*
X160202380Y-130261904D02*
X160202380Y-130833333D01*
X160202380Y-130547619D02*
X159202380Y-130547619D01*
X159345238Y-130642857D01*
X159440476Y-130738095D01*
X159488095Y-130833333D01*
X141500000Y-132511904D02*
X141452380Y-132607142D01*
X141452380Y-132750000D01*
X141500000Y-132892857D01*
X141595238Y-132988095D01*
X141690476Y-133035714D01*
X141880952Y-133083333D01*
X142023809Y-133083333D01*
X142214285Y-133035714D01*
X142309523Y-132988095D01*
X142404761Y-132892857D01*
X142452380Y-132750000D01*
X142452380Y-132654761D01*
X142404761Y-132511904D01*
X142357142Y-132464285D01*
X142023809Y-132464285D01*
X142023809Y-132654761D01*
X142452380Y-132035714D02*
X141452380Y-132035714D01*
X142452380Y-131464285D01*
X141452380Y-131464285D01*
X142452380Y-130988095D02*
X141452380Y-130988095D01*
X141452380Y-130750000D01*
X141500000Y-130607142D01*
X141595238Y-130511904D01*
X141690476Y-130464285D01*
X141880952Y-130416666D01*
X142023809Y-130416666D01*
X142214285Y-130464285D01*
X142309523Y-130511904D01*
X142404761Y-130607142D01*
X142452380Y-130750000D01*
X142452380Y-130988095D01*
X136678571Y-139166666D02*
X136726190Y-139023809D01*
X136773809Y-138976190D01*
X136869047Y-138928571D01*
X137011904Y-138928571D01*
X137107142Y-138976190D01*
X137154761Y-139023809D01*
X137202380Y-139119047D01*
X137202380Y-139500000D01*
X136202380Y-139500000D01*
X136202380Y-139166666D01*
X136250000Y-139071428D01*
X136297619Y-139023809D01*
X136392857Y-138976190D01*
X136488095Y-138976190D01*
X136583333Y-139023809D01*
X136630952Y-139071428D01*
X136678571Y-139166666D01*
X136678571Y-139500000D01*
X136202380Y-138500000D02*
X137011904Y-138500000D01*
X137107142Y-138452380D01*
X137154761Y-138404761D01*
X137202380Y-138309523D01*
X137202380Y-138119047D01*
X137154761Y-138023809D01*
X137107142Y-137976190D01*
X137011904Y-137928571D01*
X136202380Y-137928571D01*
X136202380Y-137595238D02*
X136202380Y-137023809D01*
X137202380Y-137309523D02*
X136202380Y-137309523D01*
X136202380Y-136833333D02*
X136202380Y-136261904D01*
X137202380Y-136547619D02*
X136202380Y-136547619D01*
X136202380Y-135738095D02*
X136202380Y-135547619D01*
X136250000Y-135452380D01*
X136345238Y-135357142D01*
X136535714Y-135309523D01*
X136869047Y-135309523D01*
X137059523Y-135357142D01*
X137154761Y-135452380D01*
X137202380Y-135547619D01*
X137202380Y-135738095D01*
X137154761Y-135833333D01*
X137059523Y-135928571D01*
X136869047Y-135976190D01*
X136535714Y-135976190D01*
X136345238Y-135928571D01*
X136250000Y-135833333D01*
X136202380Y-135738095D01*
X137202380Y-134880952D02*
X136202380Y-134880952D01*
X137202380Y-134309523D01*
X136202380Y-134309523D01*
X136821428Y-133071428D02*
X136821428Y-132309523D01*
X137202380Y-132690476D02*
X136440476Y-132690476D01*
X136202380Y-131357142D02*
X136202380Y-131833333D01*
X136678571Y-131880952D01*
X136630952Y-131833333D01*
X136583333Y-131738095D01*
X136583333Y-131500000D01*
X136630952Y-131404761D01*
X136678571Y-131357142D01*
X136773809Y-131309523D01*
X137011904Y-131309523D01*
X137107142Y-131357142D01*
X137154761Y-131404761D01*
X137202380Y-131500000D01*
X137202380Y-131738095D01*
X137154761Y-131833333D01*
X137107142Y-131880952D01*
X136202380Y-131023809D02*
X137202380Y-130690476D01*
X136202380Y-130357142D01*
X131202380Y-138428571D02*
X131202380Y-137857142D01*
X132202380Y-138142857D02*
X131202380Y-138142857D01*
X131678571Y-137523809D02*
X131678571Y-137190476D01*
X132202380Y-137047619D02*
X132202380Y-137523809D01*
X131202380Y-137523809D01*
X131202380Y-137047619D01*
X132202380Y-136619047D02*
X131202380Y-136619047D01*
X131916666Y-136285714D01*
X131202380Y-135952380D01*
X132202380Y-135952380D01*
X132202380Y-135476190D02*
X131202380Y-135476190D01*
X131202380Y-135095238D01*
X131250000Y-135000000D01*
X131297619Y-134952380D01*
X131392857Y-134904761D01*
X131535714Y-134904761D01*
X131630952Y-134952380D01*
X131678571Y-135000000D01*
X131726190Y-135095238D01*
X131726190Y-135476190D01*
X132202380Y-133714285D02*
X131202380Y-133714285D01*
X131202380Y-133476190D01*
X131250000Y-133333333D01*
X131345238Y-133238095D01*
X131440476Y-133190476D01*
X131630952Y-133142857D01*
X131773809Y-133142857D01*
X131964285Y-133190476D01*
X132059523Y-133238095D01*
X132154761Y-133333333D01*
X132202380Y-133476190D01*
X132202380Y-133714285D01*
X131916666Y-132761904D02*
X131916666Y-132285714D01*
X132202380Y-132857142D02*
X131202380Y-132523809D01*
X132202380Y-132190476D01*
X131202380Y-132000000D02*
X131202380Y-131428571D01*
X132202380Y-131714285D02*
X131202380Y-131714285D01*
X131916666Y-131142857D02*
X131916666Y-130666666D01*
X132202380Y-131238095D02*
X131202380Y-130904761D01*
X132202380Y-130571428D01*
X116000000Y-132761904D02*
X115952380Y-132857142D01*
X115952380Y-133000000D01*
X116000000Y-133142857D01*
X116095238Y-133238095D01*
X116190476Y-133285714D01*
X116380952Y-133333333D01*
X116523809Y-133333333D01*
X116714285Y-133285714D01*
X116809523Y-133238095D01*
X116904761Y-133142857D01*
X116952380Y-133000000D01*
X116952380Y-132904761D01*
X116904761Y-132761904D01*
X116857142Y-132714285D01*
X116523809Y-132714285D01*
X116523809Y-132904761D01*
X116952380Y-132285714D02*
X115952380Y-132285714D01*
X116952380Y-131714285D01*
X115952380Y-131714285D01*
X116952380Y-131238095D02*
X115952380Y-131238095D01*
X115952380Y-131000000D01*
X116000000Y-130857142D01*
X116095238Y-130761904D01*
X116190476Y-130714285D01*
X116380952Y-130666666D01*
X116523809Y-130666666D01*
X116714285Y-130714285D01*
X116809523Y-130761904D01*
X116904761Y-130857142D01*
X116952380Y-131000000D01*
X116952380Y-131238095D01*
X121000000Y-132761904D02*
X120952380Y-132857142D01*
X120952380Y-133000000D01*
X121000000Y-133142857D01*
X121095238Y-133238095D01*
X121190476Y-133285714D01*
X121380952Y-133333333D01*
X121523809Y-133333333D01*
X121714285Y-133285714D01*
X121809523Y-133238095D01*
X121904761Y-133142857D01*
X121952380Y-133000000D01*
X121952380Y-132904761D01*
X121904761Y-132761904D01*
X121857142Y-132714285D01*
X121523809Y-132714285D01*
X121523809Y-132904761D01*
X121952380Y-132285714D02*
X120952380Y-132285714D01*
X121952380Y-131714285D01*
X120952380Y-131714285D01*
X121952380Y-131238095D02*
X120952380Y-131238095D01*
X120952380Y-131000000D01*
X121000000Y-130857142D01*
X121095238Y-130761904D01*
X121190476Y-130714285D01*
X121380952Y-130666666D01*
X121523809Y-130666666D01*
X121714285Y-130714285D01*
X121809523Y-130761904D01*
X121904761Y-130857142D01*
X121952380Y-131000000D01*
X121952380Y-131238095D01*
X126821428Y-133285714D02*
X126821428Y-132523809D01*
X127202380Y-132904761D02*
X126440476Y-132904761D01*
X126202380Y-131571428D02*
X126202380Y-132047619D01*
X126678571Y-132095238D01*
X126630952Y-132047619D01*
X126583333Y-131952380D01*
X126583333Y-131714285D01*
X126630952Y-131619047D01*
X126678571Y-131571428D01*
X126773809Y-131523809D01*
X127011904Y-131523809D01*
X127107142Y-131571428D01*
X127154761Y-131619047D01*
X127202380Y-131714285D01*
X127202380Y-131952380D01*
X127154761Y-132047619D01*
X127107142Y-132095238D01*
X126202380Y-131238095D02*
X127202380Y-130904761D01*
X126202380Y-130571428D01*
D11*
X151350000Y-117050000D02*
X151350000Y-94350000D01*
X151350000Y-94350000D02*
X134650000Y-94350000D01*
X134650000Y-94350000D02*
X134650000Y-117050000D01*
X134650000Y-117050000D02*
X151350000Y-117050000D01*
X142650000Y-99400000D02*
X143350000Y-99000000D01*
X143350000Y-99800000D02*
X143350000Y-98600000D01*
X143350000Y-98600000D02*
X142650000Y-98600000D01*
X142650000Y-98600000D02*
X142650000Y-99800000D01*
X142650000Y-99800000D02*
X143350000Y-99800000D01*
X142000000Y-94090000D02*
X144000000Y-94090000D01*
X138500000Y-99200000D02*
X141650000Y-99200000D01*
X144350000Y-99200000D02*
X147500000Y-99200000D01*
X150183318Y-126534756D02*
G75*
G02X149500000Y-126680000I-683318J1534756D01*
G01*
X151035426Y-124316958D02*
G75*
G02X151035000Y-125684000I-1535426J-683042D01*
G01*
X148816958Y-123464574D02*
G75*
G02X150184000Y-123465000I683042J-1535426D01*
G01*
X147964574Y-125683042D02*
G75*
G02X147965000Y-124316000I1535426J683042D01*
G01*
X149528805Y-126680253D02*
G75*
G02X148816000Y-126535000I-28805J1680253D01*
G01*
X156260000Y-125000000D02*
G75*
G03X156260000Y-125000000I-1680000J0D01*
G01*
X161340000Y-125000000D02*
G75*
G03X161340000Y-125000000I-1680000J0D01*
G01*
X166420000Y-125000000D02*
G75*
G03X166420000Y-125000000I-1680000J0D01*
G01*
X171500000Y-125000000D02*
G75*
G03X171500000Y-125000000I-1680000J0D01*
G01*
X176580000Y-125000000D02*
G75*
G03X176580000Y-125000000I-1680000J0D01*
G01*
X146900000Y-129100000D02*
X177500000Y-129100000D01*
X146900000Y-127600000D02*
X177500000Y-127600000D01*
X146900000Y-122699000D02*
X177500000Y-122699000D01*
X146900000Y-119739000D02*
X177500000Y-119739000D01*
X146900000Y-129660000D02*
X177500000Y-129660000D01*
X146900000Y-119739000D02*
X146900000Y-129660000D01*
X177500000Y-119739000D02*
X177500000Y-129660000D01*
X155855000Y-123931000D02*
X155808000Y-123977000D01*
X153546000Y-126239000D02*
X153511000Y-126274000D01*
X155650000Y-123725000D02*
X155615000Y-123761000D01*
X153353000Y-126023000D02*
X153306000Y-126069000D01*
X160935000Y-123931000D02*
X160888000Y-123977000D01*
X158626000Y-126239000D02*
X158591000Y-126274000D01*
X160730000Y-123725000D02*
X160695000Y-123761000D01*
X158433000Y-126023000D02*
X158386000Y-126069000D01*
X166015000Y-123931000D02*
X165968000Y-123977000D01*
X163706000Y-126239000D02*
X163671000Y-126274000D01*
X165810000Y-123725000D02*
X165775000Y-123761000D01*
X163513000Y-126023000D02*
X163466000Y-126069000D01*
X171095000Y-123931000D02*
X171048000Y-123977000D01*
X168786000Y-126239000D02*
X168751000Y-126274000D01*
X170890000Y-123725000D02*
X170855000Y-123761000D01*
X168593000Y-126023000D02*
X168546000Y-126069000D01*
X176175000Y-123931000D02*
X176128000Y-123977000D01*
X173866000Y-126239000D02*
X173831000Y-126274000D01*
X175970000Y-123725000D02*
X175935000Y-123761000D01*
X173673000Y-126023000D02*
X173626000Y-126069000D01*
X146660000Y-129160000D02*
X146660000Y-129900000D01*
X146660000Y-129900000D02*
X147160000Y-129900000D01*
X96270000Y-89270000D02*
X96270000Y-86730000D01*
X96270000Y-86730000D02*
X93600000Y-86730000D01*
X93600000Y-89270000D02*
X93600000Y-127500000D01*
X93600000Y-84060000D02*
X93600000Y-86730000D01*
X108970000Y-86730000D02*
X111640000Y-86730000D01*
X108970000Y-86730000D02*
X108970000Y-124830000D01*
X108970000Y-124830000D02*
X111640000Y-124830000D01*
X96270000Y-89270000D02*
X93600000Y-89270000D01*
X96270000Y-89270000D02*
X96270000Y-124830000D01*
X96270000Y-124830000D02*
X93600000Y-124830000D01*
X93600000Y-127500000D02*
X111640000Y-127500000D01*
X111640000Y-127500000D02*
X111640000Y-84060000D01*
X111640000Y-84060000D02*
X93600000Y-84060000D01*
X147921392Y-88057665D02*
G75*
G03X147764484Y-91290000I1078608J-1672335D01*
G01*
X150078608Y-88057665D02*
G75*
G02X150235516Y-91290000I-1078608J-1672335D01*
G01*
X147920163Y-88688870D02*
G75*
G03X147920000Y-90770961I1079837J-1041130D01*
G01*
X150079837Y-88688870D02*
G75*
G02X150080000Y-90770961I-1079837J-1041130D01*
G01*
X147764000Y-91290000D02*
X147920000Y-91290000D01*
X150080000Y-91290000D02*
X150236000Y-91290000D01*
X113660000Y-129900000D02*
X114160000Y-129900000D01*
X113660000Y-129160000D02*
X113660000Y-129900000D01*
X140673000Y-126023000D02*
X140626000Y-126069000D01*
X142970000Y-123725000D02*
X142935000Y-123761000D01*
X140866000Y-126239000D02*
X140831000Y-126274000D01*
X143175000Y-123931000D02*
X143128000Y-123977000D01*
X135593000Y-126023000D02*
X135546000Y-126069000D01*
X137890000Y-123725000D02*
X137855000Y-123761000D01*
X135786000Y-126239000D02*
X135751000Y-126274000D01*
X138095000Y-123931000D02*
X138048000Y-123977000D01*
X130513000Y-126023000D02*
X130466000Y-126069000D01*
X132810000Y-123725000D02*
X132775000Y-123761000D01*
X130706000Y-126239000D02*
X130671000Y-126274000D01*
X133015000Y-123931000D02*
X132968000Y-123977000D01*
X125433000Y-126023000D02*
X125386000Y-126069000D01*
X127730000Y-123725000D02*
X127695000Y-123761000D01*
X125626000Y-126239000D02*
X125591000Y-126274000D01*
X127935000Y-123931000D02*
X127888000Y-123977000D01*
X120353000Y-126023000D02*
X120306000Y-126069000D01*
X122650000Y-123725000D02*
X122615000Y-123761000D01*
X120546000Y-126239000D02*
X120511000Y-126274000D01*
X122855000Y-123931000D02*
X122808000Y-123977000D01*
X144500000Y-119739000D02*
X144500000Y-129660000D01*
X113900000Y-119739000D02*
X113900000Y-129660000D01*
X113900000Y-129660000D02*
X144500000Y-129660000D01*
X113900000Y-119739000D02*
X144500000Y-119739000D01*
X113900000Y-122699000D02*
X144500000Y-122699000D01*
X113900000Y-127600000D02*
X144500000Y-127600000D01*
X113900000Y-129100000D02*
X144500000Y-129100000D01*
X143580000Y-125000000D02*
G75*
G03X143580000Y-125000000I-1680000J0D01*
G01*
X138500000Y-125000000D02*
G75*
G03X138500000Y-125000000I-1680000J0D01*
G01*
X133420000Y-125000000D02*
G75*
G03X133420000Y-125000000I-1680000J0D01*
G01*
X128340000Y-125000000D02*
G75*
G03X128340000Y-125000000I-1680000J0D01*
G01*
X123260000Y-125000000D02*
G75*
G03X123260000Y-125000000I-1680000J0D01*
G01*
X116528805Y-126680253D02*
G75*
G02X115816000Y-126535000I-28805J1680253D01*
G01*
X114964574Y-125683042D02*
G75*
G02X114965000Y-124316000I1535426J683042D01*
G01*
X115816958Y-123464574D02*
G75*
G02X117184000Y-123465000I683042J-1535426D01*
G01*
X118035426Y-124316958D02*
G75*
G02X118035000Y-125684000I-1535426J-683042D01*
G01*
X117183318Y-126534756D02*
G75*
G02X116500000Y-126680000I-683318J1534756D01*
G01*
X164120000Y-86000000D02*
X163350000Y-86000000D01*
X156040000Y-86000000D02*
X156810000Y-86000000D01*
X163350000Y-84630000D02*
X156810000Y-84630000D01*
X163350000Y-87370000D02*
X163350000Y-84630000D01*
X156810000Y-87370000D02*
X163350000Y-87370000D01*
X156810000Y-84630000D02*
X156810000Y-87370000D01*
X156810000Y-81030000D02*
X156810000Y-83770000D01*
X156810000Y-83770000D02*
X163350000Y-83770000D01*
X163350000Y-83770000D02*
X163350000Y-81030000D01*
X163350000Y-81030000D02*
X156810000Y-81030000D01*
X156040000Y-82400000D02*
X156810000Y-82400000D01*
X164120000Y-82400000D02*
X163350000Y-82400000D01*
X163190000Y-72970000D02*
X163190000Y-70230000D01*
X163190000Y-70230000D02*
X156650000Y-70230000D01*
X156650000Y-70230000D02*
X156650000Y-72970000D01*
X156650000Y-72970000D02*
X163190000Y-72970000D01*
X163960000Y-71600000D02*
X163190000Y-71600000D01*
X155880000Y-71600000D02*
X156650000Y-71600000D01*
X143690000Y-63800000D02*
X116690000Y-63800000D01*
X143690000Y-63800000D02*
X143690000Y-92800000D01*
X143690000Y-92800000D02*
X116690000Y-92800000D01*
X116690000Y-92800000D02*
X116690000Y-63800000D01*
X170921392Y-88057665D02*
G75*
G03X170764484Y-91290000I1078608J-1672335D01*
G01*
X173078608Y-88057665D02*
G75*
G02X173235516Y-91290000I-1078608J-1672335D01*
G01*
X170920163Y-88688870D02*
G75*
G03X170920000Y-90770961I1079837J-1041130D01*
G01*
X173079837Y-88688870D02*
G75*
G02X173080000Y-90770961I-1079837J-1041130D01*
G01*
X170764000Y-91290000D02*
X170920000Y-91290000D01*
X173080000Y-91290000D02*
X173236000Y-91290000D01*
X174350000Y-117050000D02*
X174350000Y-94350000D01*
X174350000Y-94350000D02*
X157650000Y-94350000D01*
X157650000Y-94350000D02*
X157650000Y-117050000D01*
X157650000Y-117050000D02*
X174350000Y-117050000D01*
X165650000Y-99400000D02*
X166350000Y-99000000D01*
X166350000Y-99800000D02*
X166350000Y-98600000D01*
X166350000Y-98600000D02*
X165650000Y-98600000D01*
X165650000Y-98600000D02*
X165650000Y-99800000D01*
X165650000Y-99800000D02*
X166350000Y-99800000D01*
X165000000Y-94090000D02*
X167000000Y-94090000D01*
X161500000Y-99200000D02*
X164650000Y-99200000D01*
X167350000Y-99200000D02*
X170500000Y-99200000D01*
X122009000Y-112870000D02*
X122009000Y-111360000D01*
X125710000Y-112870000D02*
X125710000Y-111360000D01*
X128980000Y-111360000D02*
X118740000Y-111360000D01*
X118740000Y-112870000D02*
X118740000Y-108229000D01*
X128980000Y-112870000D02*
X128980000Y-108229000D01*
X128980000Y-108229000D02*
X118740000Y-108229000D01*
X128980000Y-112870000D02*
X118740000Y-112870000D01*
X128980000Y-102870000D02*
X118740000Y-102870000D01*
X128980000Y-98229000D02*
X118740000Y-98229000D01*
X128980000Y-102870000D02*
X128980000Y-98229000D01*
X118740000Y-102870000D02*
X118740000Y-98229000D01*
X128980000Y-101360000D02*
X118740000Y-101360000D01*
X125710000Y-102870000D02*
X125710000Y-101360000D01*
X122009000Y-102870000D02*
X122009000Y-101360000D01*
X155880000Y-68000000D02*
X156650000Y-68000000D01*
X163960000Y-68000000D02*
X163190000Y-68000000D01*
X156650000Y-69370000D02*
X163190000Y-69370000D01*
X156650000Y-66630000D02*
X156650000Y-69370000D01*
X163190000Y-66630000D02*
X156650000Y-66630000D01*
X163190000Y-69370000D02*
X163190000Y-66630000D01*
X156810000Y-73830000D02*
X156810000Y-76570000D01*
X156810000Y-76570000D02*
X163350000Y-76570000D01*
X163350000Y-76570000D02*
X163350000Y-73830000D01*
X163350000Y-73830000D02*
X156810000Y-73830000D01*
X156040000Y-75200000D02*
X156810000Y-75200000D01*
X164120000Y-75200000D02*
X163350000Y-75200000D01*
X156810000Y-77430000D02*
X156810000Y-80170000D01*
X156810000Y-80170000D02*
X163350000Y-80170000D01*
X163350000Y-80170000D02*
X163350000Y-77430000D01*
X163350000Y-77430000D02*
X156810000Y-77430000D01*
X156040000Y-78800000D02*
X156810000Y-78800000D01*
X164120000Y-78800000D02*
X163350000Y-78800000D01*
D10*
X142261904Y-118652380D02*
X142261904Y-117652380D01*
X142833333Y-118652380D02*
X142404761Y-118080952D01*
X142833333Y-117652380D02*
X142261904Y-118223809D01*
X143214285Y-117747619D02*
X143261904Y-117700000D01*
X143357142Y-117652380D01*
X143595238Y-117652380D01*
X143690476Y-117700000D01*
X143738095Y-117747619D01*
X143785714Y-117842857D01*
X143785714Y-117938095D01*
X143738095Y-118080952D01*
X143166666Y-118652380D01*
X143785714Y-118652380D01*
X161866666Y-118192380D02*
X161866666Y-118906666D01*
X161819047Y-119049523D01*
X161723809Y-119144761D01*
X161580952Y-119192380D01*
X161485714Y-119192380D01*
X162247619Y-118192380D02*
X162866666Y-118192380D01*
X162533333Y-118573333D01*
X162676190Y-118573333D01*
X162771428Y-118620952D01*
X162819047Y-118668571D01*
X162866666Y-118763809D01*
X162866666Y-119001904D01*
X162819047Y-119097142D01*
X162771428Y-119144761D01*
X162676190Y-119192380D01*
X162390476Y-119192380D01*
X162295238Y-119144761D01*
X162247619Y-119097142D01*
X101905714Y-83086666D02*
X102381904Y-83086666D01*
X101810476Y-83372380D02*
X102143809Y-82372380D01*
X102477142Y-83372380D01*
X103334285Y-83372380D02*
X102762857Y-83372380D01*
X103048571Y-83372380D02*
X103048571Y-82372380D01*
X102953333Y-82515238D01*
X102858095Y-82610476D01*
X102762857Y-82658095D01*
X146492380Y-90468095D02*
X145492380Y-90468095D01*
X145492380Y-90230000D01*
X145540000Y-90087142D01*
X145635238Y-89991904D01*
X145730476Y-89944285D01*
X145920952Y-89896666D01*
X146063809Y-89896666D01*
X146254285Y-89944285D01*
X146349523Y-89991904D01*
X146444761Y-90087142D01*
X146492380Y-90230000D01*
X146492380Y-90468095D01*
X145587619Y-89515714D02*
X145540000Y-89468095D01*
X145492380Y-89372857D01*
X145492380Y-89134761D01*
X145540000Y-89039523D01*
X145587619Y-88991904D01*
X145682857Y-88944285D01*
X145778095Y-88944285D01*
X145920952Y-88991904D01*
X146492380Y-89563333D01*
X146492380Y-88944285D01*
X99938095Y-69452380D02*
X99938095Y-68452380D01*
X99938095Y-68928571D02*
X100509523Y-68928571D01*
X100509523Y-69452380D02*
X100509523Y-68452380D01*
X101509523Y-69452380D02*
X100938095Y-69452380D01*
X101223809Y-69452380D02*
X101223809Y-68452380D01*
X101128571Y-68595238D01*
X101033333Y-68690476D01*
X100938095Y-68738095D01*
X172238095Y-65252380D02*
X172238095Y-64252380D01*
X172238095Y-64728571D02*
X172809523Y-64728571D01*
X172809523Y-65252380D02*
X172809523Y-64252380D01*
X173238095Y-64347619D02*
X173285714Y-64300000D01*
X173380952Y-64252380D01*
X173619047Y-64252380D01*
X173714285Y-64300000D01*
X173761904Y-64347619D01*
X173809523Y-64442857D01*
X173809523Y-64538095D01*
X173761904Y-64680952D01*
X173190476Y-65252380D01*
X173809523Y-65252380D01*
X172338095Y-142152380D02*
X172338095Y-141152380D01*
X172338095Y-141628571D02*
X172909523Y-141628571D01*
X172909523Y-142152380D02*
X172909523Y-141152380D01*
X173290476Y-141152380D02*
X173909523Y-141152380D01*
X173576190Y-141533333D01*
X173719047Y-141533333D01*
X173814285Y-141580952D01*
X173861904Y-141628571D01*
X173909523Y-141723809D01*
X173909523Y-141961904D01*
X173861904Y-142057142D01*
X173814285Y-142104761D01*
X173719047Y-142152380D01*
X173433333Y-142152380D01*
X173338095Y-142104761D01*
X173290476Y-142057142D01*
X95238095Y-133252380D02*
X95238095Y-132252380D01*
X95238095Y-132728571D02*
X95809523Y-132728571D01*
X95809523Y-133252380D02*
X95809523Y-132252380D01*
X96714285Y-132585714D02*
X96714285Y-133252380D01*
X96476190Y-132204761D02*
X96238095Y-132919047D01*
X96857142Y-132919047D01*
X128866666Y-118192380D02*
X128866666Y-118906666D01*
X128819047Y-119049523D01*
X128723809Y-119144761D01*
X128580952Y-119192380D01*
X128485714Y-119192380D01*
X129295238Y-118287619D02*
X129342857Y-118240000D01*
X129438095Y-118192380D01*
X129676190Y-118192380D01*
X129771428Y-118240000D01*
X129819047Y-118287619D01*
X129866666Y-118382857D01*
X129866666Y-118478095D01*
X129819047Y-118620952D01*
X129247619Y-119192380D01*
X129866666Y-119192380D01*
X152293333Y-86452380D02*
X151960000Y-85976190D01*
X151721904Y-86452380D02*
X151721904Y-85452380D01*
X152102857Y-85452380D01*
X152198095Y-85500000D01*
X152245714Y-85547619D01*
X152293333Y-85642857D01*
X152293333Y-85785714D01*
X152245714Y-85880952D01*
X152198095Y-85928571D01*
X152102857Y-85976190D01*
X151721904Y-85976190D01*
X153150476Y-85452380D02*
X152960000Y-85452380D01*
X152864761Y-85500000D01*
X152817142Y-85547619D01*
X152721904Y-85690476D01*
X152674285Y-85880952D01*
X152674285Y-86261904D01*
X152721904Y-86357142D01*
X152769523Y-86404761D01*
X152864761Y-86452380D01*
X153055238Y-86452380D01*
X153150476Y-86404761D01*
X153198095Y-86357142D01*
X153245714Y-86261904D01*
X153245714Y-86023809D01*
X153198095Y-85928571D01*
X153150476Y-85880952D01*
X153055238Y-85833333D01*
X152864761Y-85833333D01*
X152769523Y-85880952D01*
X152721904Y-85928571D01*
X152674285Y-86023809D01*
X152293333Y-82852380D02*
X151960000Y-82376190D01*
X151721904Y-82852380D02*
X151721904Y-81852380D01*
X152102857Y-81852380D01*
X152198095Y-81900000D01*
X152245714Y-81947619D01*
X152293333Y-82042857D01*
X152293333Y-82185714D01*
X152245714Y-82280952D01*
X152198095Y-82328571D01*
X152102857Y-82376190D01*
X151721904Y-82376190D01*
X153198095Y-81852380D02*
X152721904Y-81852380D01*
X152674285Y-82328571D01*
X152721904Y-82280952D01*
X152817142Y-82233333D01*
X153055238Y-82233333D01*
X153150476Y-82280952D01*
X153198095Y-82328571D01*
X153245714Y-82423809D01*
X153245714Y-82661904D01*
X153198095Y-82757142D01*
X153150476Y-82804761D01*
X153055238Y-82852380D01*
X152817142Y-82852380D01*
X152721904Y-82804761D01*
X152674285Y-82757142D01*
X152133333Y-72052380D02*
X151800000Y-71576190D01*
X151561904Y-72052380D02*
X151561904Y-71052380D01*
X151942857Y-71052380D01*
X152038095Y-71100000D01*
X152085714Y-71147619D01*
X152133333Y-71242857D01*
X152133333Y-71385714D01*
X152085714Y-71480952D01*
X152038095Y-71528571D01*
X151942857Y-71576190D01*
X151561904Y-71576190D01*
X152514285Y-71147619D02*
X152561904Y-71100000D01*
X152657142Y-71052380D01*
X152895238Y-71052380D01*
X152990476Y-71100000D01*
X153038095Y-71147619D01*
X153085714Y-71242857D01*
X153085714Y-71338095D01*
X153038095Y-71480952D01*
X152466666Y-72052380D01*
X153085714Y-72052380D01*
X135782380Y-66133333D02*
X136496666Y-66133333D01*
X136639523Y-66180952D01*
X136734761Y-66276190D01*
X136782380Y-66419047D01*
X136782380Y-66514285D01*
X136782380Y-65133333D02*
X136782380Y-65704761D01*
X136782380Y-65419047D02*
X135782380Y-65419047D01*
X135925238Y-65514285D01*
X136020476Y-65609523D01*
X136068095Y-65704761D01*
X169492380Y-90468095D02*
X168492380Y-90468095D01*
X168492380Y-90230000D01*
X168540000Y-90087142D01*
X168635238Y-89991904D01*
X168730476Y-89944285D01*
X168920952Y-89896666D01*
X169063809Y-89896666D01*
X169254285Y-89944285D01*
X169349523Y-89991904D01*
X169444761Y-90087142D01*
X169492380Y-90230000D01*
X169492380Y-90468095D01*
X169492380Y-88944285D02*
X169492380Y-89515714D01*
X169492380Y-89230000D02*
X168492380Y-89230000D01*
X168635238Y-89325238D01*
X168730476Y-89420476D01*
X168778095Y-89515714D01*
X165261904Y-93652380D02*
X165261904Y-92652380D01*
X165833333Y-93652380D02*
X165404761Y-93080952D01*
X165833333Y-92652380D02*
X165261904Y-93223809D01*
X166785714Y-93652380D02*
X166214285Y-93652380D01*
X166500000Y-93652380D02*
X166500000Y-92652380D01*
X166404761Y-92795238D01*
X166309523Y-92890476D01*
X166214285Y-92938095D01*
X123764761Y-114417619D02*
X123669523Y-114370000D01*
X123574285Y-114274761D01*
X123431428Y-114131904D01*
X123336190Y-114084285D01*
X123240952Y-114084285D01*
X123288571Y-114322380D02*
X123193333Y-114274761D01*
X123098095Y-114179523D01*
X123050476Y-113989047D01*
X123050476Y-113655714D01*
X123098095Y-113465238D01*
X123193333Y-113370000D01*
X123288571Y-113322380D01*
X123479047Y-113322380D01*
X123574285Y-113370000D01*
X123669523Y-113465238D01*
X123717142Y-113655714D01*
X123717142Y-113989047D01*
X123669523Y-114179523D01*
X123574285Y-114274761D01*
X123479047Y-114322380D01*
X123288571Y-114322380D01*
X124669523Y-114322380D02*
X124098095Y-114322380D01*
X124383809Y-114322380D02*
X124383809Y-113322380D01*
X124288571Y-113465238D01*
X124193333Y-113560476D01*
X124098095Y-113608095D01*
X123764761Y-104417619D02*
X123669523Y-104370000D01*
X123574285Y-104274761D01*
X123431428Y-104131904D01*
X123336190Y-104084285D01*
X123240952Y-104084285D01*
X123288571Y-104322380D02*
X123193333Y-104274761D01*
X123098095Y-104179523D01*
X123050476Y-103989047D01*
X123050476Y-103655714D01*
X123098095Y-103465238D01*
X123193333Y-103370000D01*
X123288571Y-103322380D01*
X123479047Y-103322380D01*
X123574285Y-103370000D01*
X123669523Y-103465238D01*
X123717142Y-103655714D01*
X123717142Y-103989047D01*
X123669523Y-104179523D01*
X123574285Y-104274761D01*
X123479047Y-104322380D01*
X123288571Y-104322380D01*
X124098095Y-103417619D02*
X124145714Y-103370000D01*
X124240952Y-103322380D01*
X124479047Y-103322380D01*
X124574285Y-103370000D01*
X124621904Y-103417619D01*
X124669523Y-103512857D01*
X124669523Y-103608095D01*
X124621904Y-103750952D01*
X124050476Y-104322380D01*
X124669523Y-104322380D01*
X152233333Y-68452380D02*
X151900000Y-67976190D01*
X151661904Y-68452380D02*
X151661904Y-67452380D01*
X152042857Y-67452380D01*
X152138095Y-67500000D01*
X152185714Y-67547619D01*
X152233333Y-67642857D01*
X152233333Y-67785714D01*
X152185714Y-67880952D01*
X152138095Y-67928571D01*
X152042857Y-67976190D01*
X151661904Y-67976190D01*
X153185714Y-68452380D02*
X152614285Y-68452380D01*
X152900000Y-68452380D02*
X152900000Y-67452380D01*
X152804761Y-67595238D01*
X152709523Y-67690476D01*
X152614285Y-67738095D01*
X152433333Y-75852380D02*
X152100000Y-75376190D01*
X151861904Y-75852380D02*
X151861904Y-74852380D01*
X152242857Y-74852380D01*
X152338095Y-74900000D01*
X152385714Y-74947619D01*
X152433333Y-75042857D01*
X152433333Y-75185714D01*
X152385714Y-75280952D01*
X152338095Y-75328571D01*
X152242857Y-75376190D01*
X151861904Y-75376190D01*
X152766666Y-74852380D02*
X153385714Y-74852380D01*
X153052380Y-75233333D01*
X153195238Y-75233333D01*
X153290476Y-75280952D01*
X153338095Y-75328571D01*
X153385714Y-75423809D01*
X153385714Y-75661904D01*
X153338095Y-75757142D01*
X153290476Y-75804761D01*
X153195238Y-75852380D01*
X152909523Y-75852380D01*
X152814285Y-75804761D01*
X152766666Y-75757142D01*
X152433333Y-79252380D02*
X152100000Y-78776190D01*
X151861904Y-79252380D02*
X151861904Y-78252380D01*
X152242857Y-78252380D01*
X152338095Y-78300000D01*
X152385714Y-78347619D01*
X152433333Y-78442857D01*
X152433333Y-78585714D01*
X152385714Y-78680952D01*
X152338095Y-78728571D01*
X152242857Y-78776190D01*
X151861904Y-78776190D01*
X153290476Y-78585714D02*
X153290476Y-79252380D01*
X153052380Y-78204761D02*
X152814285Y-78919047D01*
X153433333Y-78919047D01*
M02*
